<svg xmlns="http://www.w3.org/2000/svg" xmlns:xlink="http://www.w3.org/1999/xlink" viewBox="0 0 512 512"><defs><style>.cls-1{isolation:isolate;}.cls-2{fill:#dee1ec;}.cls-3,.cls-7{mix-blend-mode:multiply;}.cls-3{fill:url(#linear-gradient);}.cls-4{fill:url(#linear-gradient-2);}.cls-5{fill:#a9afc4;}.cls-6{fill:#5e6175;}.cls-7{fill:url(#linear-gradient-3);}.cls-8{fill:#f5f5f5;}.cls-9{fill:#e1830e;}</style><linearGradient id="linear-gradient" x1="160.99" y1="296.43" x2="160.99" y2="18.98" gradientUnits="userSpaceOnUse"><stop offset="0" stop-color="#cacfdd"></stop><stop offset="1" stop-color="#eef0f1"></stop></linearGradient><linearGradient id="linear-gradient-2" x1="245.5" y1="371.16" x2="245.5" y2="393.96" gradientUnits="userSpaceOnUse"><stop offset="0" stop-color="#a9afc4"></stop><stop offset="1" stop-color="#d4d8e5"></stop></linearGradient><linearGradient id="linear-gradient-3" x1="325.5" y1="336.91" x2="408.73" y2="336.91" xlink:href="#linear-gradient"></linearGradient></defs><title>Fax</title><g class="cls-1"><g id="Fax"><rect class="cls-2" x="82.27" y="124.15" width="326.46" height="220.71" rx="23.12"></rect><path class="cls-3" d="M216.57,124.34v20a34.52,34.52,0,0,1-7.39,21.3l-7.11,9a2.4,2.4,0,0,0-.52,1.5V226a3.41,3.41,0,0,0,.92,2l6,7.15a34.46,34.46,0,0,1,8.08,22.63v25.7a34.38,34.38,0,0,1-34.33,34.35H139.75a34.38,34.38,0,0,1-34.35-34.35V258.09c0-8-.18-12.87,7.4-22.45l7.11-9a2.4,2.4,0,0,0,.52-1.5V175.29a3.38,3.38,0,0,0-.92-2l-6-7.15A34.48,34.48,0,0,1,105.4,144V124.34Z"></path><path class="cls-4" d="M408.73,321.79v35.76a23.08,23.08,0,0,1-23.06,23.07H105.34a23.08,23.08,0,0,1-23.07-23.07V321.79a23.07,23.07,0,0,0,23.07,23.07H385.67A23.07,23.07,0,0,0,408.73,321.79Z"></path><rect class="cls-5" x="252.42" y="170.76" width="105.38" height="29.95" rx="6.13"></rect><rect class="cls-6" x="252.68" y="219.95" width="27.52" height="27.52" rx="5.65"></rect><rect class="cls-6" x="291.02" y="219.95" width="27.52" height="27.52" rx="5.65"></rect><rect class="cls-6" x="329.36" y="219.95" width="27.52" height="27.52" rx="5.65"></rect><rect class="cls-6" x="252.68" y="258.28" width="27.52" height="27.52" rx="5.65"></rect><rect class="cls-6" x="291.02" y="258.28" width="27.52" height="27.52" rx="5.65"></rect><rect class="cls-6" x="252.68" y="296.61" width="27.52" height="27.52" rx="5.65"></rect><rect class="cls-6" x="291.02" y="296.61" width="27.52" height="27.52" rx="5.65"></rect><rect class="cls-6" x="329.36" y="258.28" width="27.52" height="27.52" rx="5.65"></rect><rect class="cls-6" x="329.36" y="296.61" width="27.52" height="27.52" rx="5.65"></rect><path class="cls-7" d="M408.73,293.2v64.34a23.07,23.07,0,0,1-23.07,23.07H325.61A83.31,83.31,0,0,1,408.73,293.2Z"></path><path class="cls-6" d="M385.67,383.62H105.34a26.11,26.11,0,0,1-26.07-26.08V147.21a26.1,26.1,0,0,1,26.07-26.06H385.66a26.09,26.09,0,0,1,26.07,26.06V357.54A26.1,26.1,0,0,1,385.67,383.62ZM105.34,127.15a20.09,20.09,0,0,0-20.07,20.06V357.54a20.1,20.1,0,0,0,20.07,20.08H385.67a20.09,20.09,0,0,0,20.06-20.08V147.21a20.09,20.09,0,0,0-20.07-20.06Z"></path><circle class="cls-8" cx="408.73" cy="376.43" r="67.27"></circle><circle class="cls-8" cx="408.73" cy="376.43" r="67.27"></circle><path class="cls-6" d="M408.73,446.7A70.27,70.27,0,1,1,479,376.43,70.35,70.35,0,0,1,408.73,446.7Zm0-134.54A64.27,64.27,0,1,0,473,376.43,64.34,64.34,0,0,0,408.73,312.16Z"></path><polygon class="cls-9" points="434.85 341.81 434.85 411.05 398.5 411.05 382.6 395.54 382.6 341.81 434.85 341.81"></polygon><polygon class="cls-8" points="388.18 391.74 402.7 391.74 402.7 405.54 388.18 391.74"></polygon><path class="cls-8" d="M189.54,172.31l7.11-9a18.31,18.31,0,0,0,4-11.39V120.78a18.38,18.38,0,0,0-18.37-18.38h-42.5a18.37,18.37,0,0,0-18.37,18.38v30.81a18.41,18.41,0,0,0,4.32,11.85l7.38,8.75A18.4,18.4,0,0,1,137.39,184v41.62a18.41,18.41,0,0,1-4.32,11.85l-7.38,8.75a18.4,18.4,0,0,0-4.32,11.84v25.38a18.37,18.37,0,0,0,18.37,18.38h42.5a18.38,18.38,0,0,0,18.37-18.38v-25.7a18.36,18.36,0,0,0-4-11.4l-7.11-9a18.37,18.37,0,0,1-4-11.39V183.71A18.42,18.42,0,0,1,189.54,172.31Z"></path><path class="cls-6" d="M182.24,304.85h-42.5a21.4,21.4,0,0,1-21.37-21.38V258.09a21.37,21.37,0,0,1,5-13.77l7.37-8.76a15.35,15.35,0,0,0,3.62-9.91V184a15.37,15.37,0,0,0-3.62-9.91l-7.37-8.75a21.37,21.37,0,0,1-5-13.78V120.78A21.4,21.4,0,0,1,139.74,99.4h42.5a21.4,21.4,0,0,1,21.37,21.38v31.14a21.43,21.43,0,0,1-4.6,13.25l-7.11,9a15.45,15.45,0,0,0-3.32,9.54V226a15.4,15.4,0,0,0,3.32,9.53l7.11,9a21.48,21.48,0,0,1,4.6,13.26v25.7A21.4,21.4,0,0,1,182.24,304.85ZM139.74,105.4a15.39,15.39,0,0,0-15.37,15.38v30.81A15.4,15.4,0,0,0,128,161.5l7.38,8.76a21.42,21.42,0,0,1,5,13.77v41.62a21.43,21.43,0,0,1-5,13.78L128,248.18a15.42,15.42,0,0,0-3.61,9.91v25.38a15.39,15.39,0,0,0,15.37,15.38h42.5a15.4,15.4,0,0,0,15.37-15.38v-25.7a15.44,15.44,0,0,0-3.31-9.54l-7.11-9A21.44,21.44,0,0,1,182.58,226V183.71a21.49,21.49,0,0,1,4.61-13.26l7.11-9a15.39,15.39,0,0,0,3.31-9.53V120.78a15.4,15.4,0,0,0-15.37-15.38Z"></path><rect class="cls-8" x="237.2" y="68.3" width="136.29" height="82.97"></rect><rect class="cls-2" x="251.28" y="95.55" width="108.12" height="6.76"></rect><rect class="cls-2" x="251.28" y="113.57" width="108.12" height="6.76"></rect><rect class="cls-2" x="251.28" y="131.59" width="108.12" height="6.76"></rect><rect class="cls-6" x="225.86" y="148.27" width="158.5" height="6"></rect><rect class="cls-6" x="59.27" y="392.8" width="20.62" height="6" transform="translate(-259.49 165.13) rotate(-45)"></rect><rect class="cls-6" x="90.88" y="399.31" width="6" height="20.62"></rect><rect class="cls-6" x="44.89" y="369.75" width="20.62" height="6"></rect><path class="cls-6" d="M45.38,130A12.4,12.4,0,0,1,34,112.68c4.36-10.06,18.86-9.86,22.91.37A12.4,12.4,0,0,1,45.38,130Zm-2.52-6.52a6.4,6.4,0,1,0-3.33-8.41,6.4,6.4,0,0,0,3.33,8.41Z"></path><path class="cls-6" d="M87.5,85a9.63,9.63,0,1,1,17.79.28A9.65,9.65,0,0,1,87.5,85Zm9-7.17a3.63,3.63,0,1,0,3.33,5.07A3.63,3.63,0,0,0,96.45,77.82Z"></path><path class="cls-5" d="M442,295.76h-6v-6h6Zm0-16h-6v-6h6Zm0-16h-6v-6h6Zm0-16h-6v-6h6Zm0-16h-6v-6h6Zm0-16h-6v-6h6Zm0-16h-6v-6h6Zm0-16h-6v-6h6Zm0-16h-6v-6h6Zm0-16h-6v-6h6Zm-6.05-15.85a41.13,41.13,0,0,0-.67-5.53l5.89-1.13a46.75,46.75,0,0,1,.77,6.37Zm-3.47-14.37a40.6,40.6,0,0,0-2.64-4.9l5.07-3.21a46.39,46.39,0,0,1,3,5.64ZM424,109.43a40.53,40.53,0,0,0-4.25-3.61l3.56-4.83a45.91,45.91,0,0,1,4.88,4.15Zm-12.31-8.21a41,41,0,0,0-5.27-1.81l1.54-5.8A44.84,44.84,0,0,1,414,95.7Zm-14.46-3.13c-.79,0-1,0-5.91,0v-6c5.43,0,5.26,0,6.08,0Z"></path></g></g></svg>