<svg xmlns="http://www.w3.org/2000/svg" xmlns:xlink="http://www.w3.org/1999/xlink" viewBox="0 0 512 512"><defs><style>.cls-1{isolation:isolate;}.cls-2{fill:#a9afc4;}.cls-3{mix-blend-mode:multiply;fill:url(#linear-gradient);}.cls-4{fill:#dee1ec;}.cls-5{fill:#5e6175;}.cls-6{fill:#f5f5f5;}.cls-7{fill:#e1830e;}</style><linearGradient id="linear-gradient" x1="250.07" y1="354.02" x2="266.63" y2="354.02" gradientUnits="userSpaceOnUse"><stop offset="0" stop-color="#cacfdd"></stop><stop offset="1" stop-color="#eef0f1"></stop></linearGradient></defs><title>Office</title><g class="cls-1"><g id="Office"><rect class="cls-2" x="250.08" y="288.75" width="96.59" height="130.53"></rect><rect class="cls-3" x="250.07" y="288.75" width="16.55" height="130.52"></rect><path class="cls-4" d="M413.27,419.28h-66.6V170.49a66.6,66.6,0,0,1,66.6,66.6Z"></path><rect class="cls-5" x="439.75" y="57.61" width="6" height="20.31"></rect><rect class="cls-5" x="413.2" y="64.9" width="6" height="20.31" transform="translate(68.83 316.28) rotate(-45)"></rect><rect class="cls-5" x="458.66" y="70.8" width="20.31" height="6" transform="translate(85.13 353.12) rotate(-45)"></rect><path class="cls-5" d="M103.73,457.39a9.84,9.84,0,1,1,9.83-9.83A9.84,9.84,0,0,1,103.73,457.39Zm0-13.67a3.84,3.84,0,1,0,3.83,3.84A3.84,3.84,0,0,0,103.73,443.72Z"></path><path class="cls-5" d="M46.57,419.46a13.58,13.58,0,1,1,13.58-13.57A13.59,13.59,0,0,1,46.57,419.46Zm0-21.15a7.58,7.58,0,1,0,7.58,7.58A7.59,7.59,0,0,0,46.57,398.31Z"></path><path class="cls-5" d="M349.67,422.28H247.08V285.75H349.67Zm-96.59-6h90.59V291.75H253.08Z"></path><rect class="cls-6" x="82.75" y="170.49" width="167.33" height="248.79"></rect><rect class="cls-2" x="109.69" y="143.36" width="109.66" height="27.13"></rect><rect class="cls-5" x="196.65" y="113.96" width="6" height="29.4"></rect><path class="cls-5" d="M416.27,422.28h-72.6V167.49h3a69.68,69.68,0,0,1,69.6,69.6Zm-66.6-6h60.6V237.09a63.68,63.68,0,0,0-60.6-63.53Z"></path><rect class="cls-5" x="343.67" y="108.41" width="6" height="62.08"></rect><rect class="cls-5" x="413.27" y="416.28" width="52.26" height="6"></rect><rect class="cls-7" x="151.02" y="373.41" width="31.54" height="45.87"></rect><path class="cls-5" d="M253.08,422.28H79.75V167.49H253.08Zm-167.33-6H247.08V173.49H85.75Z"></path><path class="cls-5" d="M222.35,173.49H106.69V140.36H222.35Zm-109.66-6H216.35V146.36H112.69Z"></path><rect class="cls-5" x="123.2" y="200.01" width="31.06" height="31.06"></rect><rect class="cls-5" x="178.57" y="200.01" width="31.06" height="31.06"></rect><rect class="cls-5" x="123.2" y="253.79" width="31.06" height="31.06"></rect><rect class="cls-5" x="178.57" y="253.79" width="31.06" height="31.06"></rect><rect class="cls-5" x="123.2" y="307.57" width="31.06" height="31.06"></rect><rect class="cls-5" x="178.57" y="307.57" width="31.06" height="31.06"></rect><rect class="cls-5" x="346.67" y="223.09" width="38.57" height="15.27"></rect><rect class="cls-5" x="346.67" y="273.22" width="38.57" height="15.27"></rect><rect class="cls-5" x="346.67" y="323.36" width="38.57" height="15.27"></rect><rect class="cls-5" x="276.34" y="327.01" width="44.32" height="15.53"></rect><rect class="cls-5" x="276.34" y="365.64" width="44.32" height="15.53"></rect><path class="cls-7" d="M443.2,95.07a25.83,25.83,0,0,0-25.32,36.22c.74,1.85,22.53,35.71,23.59,37.36,12.25-19,23.81-37.36,23.6-37.36A25.86,25.86,0,0,0,443.2,95.07Zm-1.73,35.46A11.54,11.54,0,1,1,453,119,11.55,11.55,0,0,1,441.47,130.53Z"></path><path class="cls-2" d="M423.31,380l-3.47-4.89a43.48,43.48,0,0,0,4.36-3.54l4.07,4.42A51.73,51.73,0,0,1,423.31,380Zm12-12-4.89-3.47a42.55,42.55,0,0,0,2.94-4.78l5.3,2.82A50.45,50.45,0,0,1,435.27,368Zm7.31-15.28-5.77-1.63a46.2,46.2,0,0,0,1.18-5.49l5.93.89A49,49,0,0,1,442.58,352.7Zm1.89-16.65h-6v-6h6Zm0-16h-6v-6h6Zm0-16h-6v-6h6Zm0-16h-6v-6h6Zm0-16h-6v-6h6Zm0-16h-6v-6h6Zm0-16h-6v-6h6Zm0-16h-6v-6h6Zm0-16h-6v-6h6Zm0-16h-6v-5.71h6Z"></path><path class="cls-2" d="M393.91,389.21v-6c3,0,4.15,0,5.83-.07l.34,6C398.15,389.24,396.91,389.21,393.91,389.21Zm-10,0h-6v-6h6Z"></path><rect class="cls-5" x="271.87" y="245.15" width="6" height="30.08"></rect><path class="cls-5" d="M285.28,291.49H264.46V272.22h20.82Zm-14.82-6h8.82v-7.27h-8.82Z"></path></g></g></svg>