<svg xmlns="http://www.w3.org/2000/svg" xmlns:xlink="http://www.w3.org/1999/xlink" viewBox="0 0 512 512"><defs><style>.cls-1{isolation:isolate;}.cls-2{fill:#a9afc4;}.cls-3{fill:#5e6175;}.cls-4{fill:#f5f5f5;}.cls-5{fill:#dee1ec;}.cls-6{fill:#e1830e;}.cls-7{mix-blend-mode:multiply;fill:url(#linear-gradient);}</style><linearGradient id="linear-gradient" x1="79.6" y1="338.71" x2="187.66" y2="338.71" gradientUnits="userSpaceOnUse"><stop offset="0" stop-color="#cacfdd"></stop><stop offset="1" stop-color="#eef0f1"></stop></linearGradient></defs><title>Schedule</title><g class="cls-1"><g id="Schedule"><path class="cls-2" d="M427.57,164.75h-348V122.37a15.08,15.08,0,0,1,15.08-15.08h317.8a15.08,15.08,0,0,1,15.08,15.08Z"></path><path class="cls-3" d="M430.57,167.75h-354V122.38a18.1,18.1,0,0,1,18.08-18.09h317.8a18.1,18.1,0,0,1,18.08,18.09Zm-348-6h342V122.38a12.1,12.1,0,0,0-12.08-12.09H94.69a12.1,12.1,0,0,0-12.08,12.09Z"></path><path class="cls-4" d="M412.49,380.85H94.69a15.08,15.08,0,0,1-15.08-15.08v-201h348v201A15.08,15.08,0,0,1,412.49,380.85Z"></path><path class="cls-3" d="M140.67,129.33a9.85,9.85,0,0,1-9.85-9.84V90a9.85,9.85,0,1,1,19.69,0v29.53A9.85,9.85,0,0,1,140.67,129.33Z"></path><path class="cls-3" d="M253.59,129.33a9.84,9.84,0,0,1-9.84-9.84V90a9.84,9.84,0,1,1,19.68,0v29.53A9.84,9.84,0,0,1,253.59,129.33Z"></path><path class="cls-3" d="M366.52,129.33a9.85,9.85,0,0,1-9.85-9.84V90a9.85,9.85,0,1,1,19.69,0v29.53A9.85,9.85,0,0,1,366.52,129.33Z"></path><path class="cls-4" d="M149.2,380.85H94.69a15.08,15.08,0,0,1-15.08-15.08v-201H149.2Z"></path><rect class="cls-4" x="149.2" y="164.75" width="69.59" height="216.1"></rect><rect class="cls-4" x="218.79" y="164.75" width="69.59" height="216.1"></rect><rect class="cls-4" x="288.39" y="164.75" width="69.59" height="216.1"></rect><path class="cls-4" d="M412.49,380.85H358V164.75h69.59v201A15.08,15.08,0,0,1,412.49,380.85Z"></path><path class="cls-3" d="M152.2,383.85H94.69a18.1,18.1,0,0,1-18.08-18.08v-204H152.2ZM82.61,167.75v198a12.09,12.09,0,0,0,12.08,12.08H146.2V167.75Z"></path><path class="cls-3" d="M221.79,383.85H146.2V161.75h75.59Zm-69.59-6h63.59V167.75H152.2Z"></path><path class="cls-3" d="M291.39,383.85h-75.6V161.75h75.6Zm-69.6-6h63.6V167.75h-63.6Z"></path><path class="cls-3" d="M361,383.85H285.39V161.75H361Zm-69.59-6H355V167.75H291.39Z"></path><path class="cls-3" d="M412.49,383.85H355V161.75h75.59v204A18.1,18.1,0,0,1,412.49,383.85Zm-51.51-6h51.51a12.09,12.09,0,0,0,12.08-12.08v-198H361Z"></path><rect class="cls-5" x="149.2" y="224.48" width="170.47" height="17.33"></rect><rect class="cls-6" x="218.79" y="275.05" width="173.98" height="17.33"></rect><rect class="cls-2" x="190.92" y="325.61" width="97.46" height="17.33"></rect><path class="cls-3" d="M322.67,244.81H146.2V221.48H322.67Zm-170.47-6H316.67V227.48H152.2Z"></path><path class="cls-3" d="M395.78,295.38h-180V272.05h180Zm-174-6h168V278.05h-168Z"></path><path class="cls-3" d="M291.39,345.94H187.92V322.61H291.39Zm-97.47-6h91.47V328.61H193.92Z"></path><polygon class="cls-6" points="330.06 314.48 320.13 328.19 306.38 328.19 306.38 422.62 476 422.62 476 328.19 339.99 328.19 330.06 314.48"></polygon><path class="cls-7" d="M187.66,380.86h-93a15.1,15.1,0,0,1-15.09-15.1V300.07C133.44,284.09,187.66,324.76,187.66,380.86Z"></path><circle class="cls-4" cx="103.44" cy="380.85" r="67.44"></circle><path class="cls-3" d="M103.44,451.3a70.45,70.45,0,1,1,70.45-70.45A70.52,70.52,0,0,1,103.44,451.3Zm0-134.89a64.45,64.45,0,1,0,64.45,64.44A64.52,64.52,0,0,0,103.44,316.41Z"></path><rect class="cls-3" x="435.8" y="84.9" width="20.68" height="6" transform="translate(68.51 341.21) rotate(-45)"></rect><rect class="cls-3" x="418.78" y="63.7" width="6" height="20.68"></rect><rect class="cls-3" x="450.22" y="108.01" width="20.67" height="6"></rect><path class="cls-3" d="M430.57,195.74H76.6v-34h354Zm-348-6h342v-22h-342Z"></path><rect class="cls-4" x="339.55" y="350.43" width="103.28" height="14.4"></rect><rect class="cls-4" x="339.55" y="385.55" width="57.11" height="14.4"></rect><circle class="cls-6" cx="103.44" cy="380.85" r="41.07"></circle><polygon class="cls-4" points="93.5 396.72 87.58 390.79 99.25 379.12 99.25 354.2 107.64 354.2 107.64 382.59 93.5 396.72"></polygon><path class="cls-3" d="M200.33,451.29a12.32,12.32,0,0,1-7-2.15h0a12.42,12.42,0,1,1,7,2.15Zm-3.59-7.11a6.42,6.42,0,1,0-1.7-8.91,6.43,6.43,0,0,0,1.7,8.91Z"></path><path class="cls-3" d="M247.94,414.66a9.65,9.65,0,1,1,17.45,3.62A9.66,9.66,0,0,1,247.94,414.66Zm9.48-5.45a3.65,3.65,0,0,0-2.05,6.66h0a3.64,3.64,0,1,0,2.05-6.66Z"></path><path class="cls-2" d="M475.59,314.48h-6v-6h6Zm0-16h-6v-6h6Zm0-16h-6v-6h6Zm0-16h-6c0-3.83,0-4.38-.08-5.76l6-.48C475.62,261.87,475.59,262.54,475.59,266.48Zm-8.29-14.43a27.35,27.35,0,0,0-2.67-4.67l4.88-3.49a32.49,32.49,0,0,1,3.27,5.73Zm-9-11a27.48,27.48,0,0,0-4.69-2.66l2.42-5.49a33.49,33.49,0,0,1,5.74,3.25Zm-13.36-4.83c-1.44-.11-2.31-.08-5.76-.08v-6c3.39,0,4.55,0,6.22.1Z"></path><path class="cls-2" d="M412.71,236.15h-6v-6h6Zm-16,0h-6v-6h6Zm-16,0h-6v-6h6Z"></path><rect class="cls-2" x="339.87" y="230.15" width="6.02" height="6"></rect></g></g></svg>